<svg width="130" height="80" viewBox="0 0 130 80" fill="none" xmlns="http://www.w3.org/2000/svg">
<path fill-rule="evenodd" clip-rule="evenodd" d="M13.3005 41.8273L13.8984 41.7647L13.9708 42.4561L17.9656 42.0346L18.0404 42.7518L14.0456 43.1737L14.1172 43.8594L13.5192 43.9228L13.3005 41.8273ZM65 0C80.4501 0 94.4805 4.47314 104.65 11.6876C114.866 18.9341 121.2 28.9521 121.2 40.0004C121.2 43.4698 120.575 46.6923 119.401 49.866H130V67.7766H105.391C105.146 67.9568 104.9 68.1357 104.65 68.3128C94.4801 75.5272 80.4501 80 65 80C49.5504 80 35.52 75.5276 25.3504 68.3133C25.1007 68.1361 24.8531 67.9571 24.6081 67.7766H0V49.866H10.5337C9.4029 46.709 8.80038 43.404 8.80038 40.0004C8.80038 28.9521 15.1344 18.9337 25.3501 11.6871C35.5196 4.47278 49.55 0 65 0ZM117.694 49.866C118.936 46.6987 119.601 43.4739 119.601 40C119.601 29.4551 113.49 19.8694 103.635 12.9134C93.7337 5.9247 80.0628 1.59198 65.0005 1.59198C49.9376 1.59198 36.2672 5.9247 26.3659 12.913C16.5108 19.869 10.4004 29.4551 10.4004 40C10.4004 43.4078 11.0403 46.7149 12.2371 49.866H22.1048C20.5318 46.7682 19.6757 43.4499 19.6757 40C19.6757 23.2443 39.8152 9.56382 64.5917 9.41455V8.2484C64.1584 8.39892 64.2651 8.76949 62.3695 8.77564C62.7656 8.59822 63.1481 8.41392 63.438 8.18507C63.0336 8.1413 62.6812 8.01981 62.3808 7.82122C64.0889 7.81444 63.2309 6.9855 65.1564 6.98265C65.1566 7.00149 65.1563 7.02089 65.1565 7.04034H65.1916V9.41268C90.0679 9.48279 110.325 23.1952 110.325 40C110.325 43.4499 109.468 46.7682 107.895 49.866H117.694ZM27.3697 67.7766C37.1811 74.3587 50.4404 78.408 65.0005 78.408C79.5601 78.408 92.8185 74.3587 102.63 67.7766H83.9496C78.1791 69.5805 71.7591 70.589 65.0005 70.589C58.2418 70.589 51.8209 69.5805 46.0503 67.7766H27.3697ZM106.131 49.866C107.824 46.7826 108.749 43.4596 108.749 40C108.749 32.0409 103.859 24.8027 95.9742 19.5473C88.0807 14.2865 77.1948 11.0149 65.1916 10.9804V12.8128L67.4036 13.7448H67.4216L67.1954 14.2531H67.2184C70.848 16.1529 70.3476 19.9745 71.9024 20.798H71.8566L72.0324 20.8633L70.9465 22.8694V28.8446L75.5216 31.6144V30.6917H75.56L75.5568 30.6509L79.5966 30.3366L79.6059 30.3112L79.6513 30.3323L79.7042 30.3282L79.7065 30.3581L82.951 31.8733L82.948 31.8814H82.9589V34.9108L89.6995 36.2611H93.5019C93.6846 35.4011 94.1342 34.7879 94.7627 34.4608L94.8931 33.7702L97.5498 34.2665L97.4317 34.8926C98.1964 35.7178 98.6593 36.7641 98.7 37.9561L103.591 38.9326L103.594 38.9312L103.595 38.9335L103.598 38.9341L103.597 38.9396L104.269 40.9183H104.274V49.866H106.131ZM64.5917 10.9814C52.6749 11.0544 41.8728 14.3179 34.027 19.5473C26.1422 24.8027 21.2522 32.0409 21.2522 40C21.2522 43.4597 22.1769 46.7826 23.8693 49.866H25.82V40.2752L25.7276 40.3025L25.7476 39.7982L26.1553 39.682L26.8539 38.9639L28.29 33.5908L28.2904 32.8923C27.9924 32.7562 27.8632 33.4476 27.6692 33.5128C27.2064 33.6704 26.7276 33.7807 26.2132 33.7846L26.8539 33.2994L26.1939 33.0281C27.0704 32.8959 27.6268 32.6364 27.4168 32.0382L28.6008 31.8057L28.6011 33.5905L30.0241 38.1812L31.602 37.6415L32.7465 35.8542V34.3013L32.7466 34.2826H35.8229V34.3013V35.0785V35.5989L37.0665 36.5975H40.863L58.9208 29.6949V22.8865L57.8256 20.8633L58.0015 20.798H57.9712C59.526 19.9745 59.0256 16.1529 62.6553 14.2531H62.6603L62.4335 13.7448H62.4516L64.5917 12.8431V10.9814ZM52.3438 67.7766C56.3529 68.585 60.6026 69.0204 65.0005 69.0204C69.3983 69.0204 73.6471 68.585 77.6561 67.7766H52.3438ZM26.62 49.866H27.2624V49.5777H26.62V49.866ZM28.7828 49.866H29.4425V49.5777H28.7828V49.866ZM30.9835 49.866H32.2304V49.5777H30.9835V49.866ZM33.0305 49.866H35.3064V49.5777H33.0305V49.866ZM36.1065 49.866H37.5396V49.5777H36.1065V49.866ZM38.3396 49.866H42.2032V49.5777H38.3396V49.866ZM43.0032 49.866H45.4228V49.5777H43.0032V49.866ZM46.2229 49.866H46.8824V49.5777H46.2229V49.866ZM47.6824 49.866H50.6168V49.5777H47.6824V49.866ZM51.4168 49.866H52.0764V49.5777H51.4168V49.866ZM52.8765 49.866H53.8948V49.5777H52.8765V49.866ZM54.6949 49.866H56.2872V49.5777H54.6949V49.866ZM57.0873 49.866H58.9208V49.5777H57.0873V49.866ZM59.7209 49.866H61.9164V46.0073L61.8717 45.9567L61.9164 45.9173V43.537L61.8717 43.4977L62.4048 42.8945V39.9132H62.1996V39.9013H61.6085V36.382H61.5917V36.3857H60.7916V32.1692H60.926V32.168H62.4048V22.3948H59.7209V49.866ZM63.2048 49.866H66.552V47.48L65.7048 48.4386L65.7026 48.4366H64.0675L64.0653 48.4386L63.2048 47.465V49.866ZM67.9152 49.866H70.1464V22.3948H67.3521V32.168H68.7909V32.1692H68.9593V36.3857H68.1593V36.382H68.04V39.9013H67.5172V39.9132H67.3521V42.8796L67.872 43.4678H67.9152V49.866ZM70.9465 49.866H72.8717V49.5777H70.9465V49.866ZM73.6717 49.866H75.264V49.5777H73.6717V49.866ZM76.064 49.866H78.3864V49.5777H76.064V49.866ZM79.1864 49.866H80.7913V49.5777H79.1864V49.866ZM81.5913 49.866H82.6952V49.5777H81.5913V49.866ZM83.4952 49.866H84.6777V49.5777H83.4952V49.866ZM85.4776 49.866H87.0549V49.5777H85.4776V49.866ZM87.8549 49.866H89.3413V49.5777H87.8549V49.866ZM90.1413 49.866H90.8952V49.5777H90.1413V49.866ZM91.6952 49.866H93.47V49.5777H91.6952V49.866ZM94.27 49.866H97.9304V49.5777H94.27V49.866ZM98.7304 49.866H103.474V49.5777H98.7304V49.866ZM76.9941 51.4581L64.9321 53.6892L64.9274 53.7138L64.8631 53.7019L64.7989 53.7138L64.7942 53.6892L52.7324 51.4581H1.59994V66.1845H128.4V51.4581H76.9941ZM57.2417 51.4581L64.8633 52.8916L72.4848 51.4581H57.2417ZM59.1356 21.5988H70.7224L71.1583 20.798H67.4576V19.5132C67.4576 18.8083 67.1708 18.1679 66.7092 17.7039C66.2481 17.2409 65.6104 16.9532 64.9087 16.9532C64.206 16.9532 63.5676 17.2414 63.1077 17.7051C62.6476 18.1683 62.3632 18.8088 62.3668 19.5132L62.3736 20.798H58.6998L59.1356 21.5988ZM58.9208 48.7816V46.507H57.906H57.2458H56.8373V45.7111H57.2458V41.4062H57.6462V41.4033H58.9208V31.7225C56.1833 32.5608 55.353 34.9545 52.8765 36.1284V48.7816H58.9208ZM58.9208 45.7111V44.3288H57.906V45.7111H58.9208ZM58.9208 43.5327V42.1994H57.906V43.5327H58.9208ZM52.8761 34.8981C52.8758 33.2451 50.6201 33.2419 50.6184 34.8981L50.6168 35.9129L47.666 36.6189C47.4671 35.1994 45.4262 35.2728 45.4244 36.8484L45.4228 37.1555L41.4298 38.1106C40.9911 37.0563 39.3151 37.2257 39.2793 38.6249L37.3915 39.0766L37.3987 37.3934H41.0517L58.9208 30.5477V31.0377C55.2027 32.1746 55.1734 34.0354 52.8765 35.2513L52.8761 34.8981ZM52.0787 34.8974L52.0764 48.7816H51.4168V34.8983H51.4139C51.4041 34.2289 52.0942 34.2177 52.0787 34.8974ZM70.9465 29.7743V30.556C74.6894 31.7567 75.8487 34.2608 78.3864 35.5308V34.2581L75.5543 32.5512H75.5216V32.5316L70.9465 29.7743ZM70.9465 31.2455V41.4106H72.7156V41.4133H73.1449V45.7183H73.3748V46.5143H73.1449H72.3448H70.9633H70.9465V48.7816H78.3864V36.401C75.7406 35.2127 73.8274 32.2186 70.9465 31.2455ZM67.3521 32.964V35.5861H68.1593V32.964H67.3521ZM66.552 46.2743V46.1038H63.2048V46.2593L64.4256 47.6406H65.3445L66.552 46.2743ZM66.552 45.3079V44.4797H63.2048V45.3079H66.552ZM66.552 43.6836V43.1801L65.3445 41.8138H64.4256L63.2048 43.195V43.6836H66.552ZM66.552 41.9743V39.9132H63.2048V41.9894L64.0653 41.0158L64.0675 41.0178H65.7026L65.7048 41.0158L66.552 41.9743ZM66.552 39.1171V36.382H63.2048V39.1171H66.552ZM66.552 35.5861V35.5845L66.5504 35.5861H66.552ZM66.552 35.5132V33.1348L65.357 34.3239L66.552 35.5132ZM66.552 32.168V29.7257H65.2528V32.168H66.552ZM66.552 28.9297V22.3948H63.2048V28.9297H66.552ZM63.2048 29.7257V32.168H64.4528V29.7257H63.2048ZM63.2048 33.3083V35.3396L64.2255 34.3239L63.2048 33.3083ZM63.2048 35.571V35.5861H63.22L63.2048 35.571ZM62.4048 35.5861V32.964H61.5917V35.5861H62.4048ZM64.9188 18.636C65.5056 18.636 65.9845 19.118 65.9845 19.7079C65.9845 20.2981 65.5056 20.7797 64.9188 20.7797C64.3316 20.7797 63.8528 20.2981 63.8528 19.7079C63.8528 19.118 64.3316 18.636 64.9188 18.636ZM63.3212 20.798H66.5097L66.5048 19.5132C66.5029 19.0741 66.3221 18.6734 66.0328 18.3841C65.744 18.0955 65.3465 17.9152 64.9087 17.9152C64.4708 17.9152 64.0728 18.0955 63.7849 18.3848C63.4972 18.6743 63.3188 19.0746 63.3192 19.5129L63.3212 20.798ZM90.7092 58.8947V59.9387C90.7092 60.0884 90.7636 60.2042 90.8732 60.2826C90.9853 60.3638 91.0409 60.4322 91.0409 60.4859C91.0409 60.5318 91.0173 60.5715 90.9717 60.603C90.9249 60.6357 90.8317 60.6873 90.69 60.7598C90.5497 60.8327 90.4188 60.9087 90.296 60.9868C90.1736 61.067 90.0397 61.1766 89.8949 61.3174C90.162 61.405 90.5396 61.448 91.0293 61.448C91.9025 61.448 92.5589 61.2096 92.9997 60.7316C93.4408 60.2544 93.6604 59.4806 93.6604 58.4087C93.6604 57.9363 93.6028 57.4969 93.4892 57.0937C93.3745 56.6889 93.2105 56.3435 92.9997 56.0577C92.7876 55.7699 92.5353 55.5491 92.2449 55.3918C91.9525 55.2358 91.6308 55.1578 91.2773 55.1578C91.1693 55.1578 90.9805 55.1932 90.7092 55.2641V56.5229L89.2 55.7978C89.2 55.4169 89.1149 55.2271 88.9425 55.2271C88.752 55.2271 88.6573 55.3222 88.6573 55.5128C88.6573 55.7043 88.7769 55.8694 89.016 56.0087C89.2549 56.1465 89.6649 56.3451 90.2457 56.6046C90.8268 56.864 91.2641 57.1008 91.5541 57.3158C91.8461 57.5307 91.9924 57.7799 91.9924 58.0633C91.9924 58.2727 91.9465 58.4338 91.8536 58.5481C91.7621 58.6623 91.6269 58.7427 91.4481 58.7897C91.2696 58.8371 91.0236 58.8725 90.7092 58.8947ZM89.2 60.8546V56.9398C89.8376 57.2506 90.3405 57.5192 90.7092 57.7445V58.4931C90.8741 58.4497 90.9568 58.2711 90.9568 57.9563C90.9568 57.7167 90.8136 57.5026 90.5293 57.3206C90.2448 57.1371 89.8124 56.9126 89.2345 56.6503C88.6556 56.3868 88.2192 56.1465 87.9232 55.9299C87.6264 55.7151 87.4776 55.4616 87.4776 55.1721C87.4776 54.9962 87.5293 54.868 87.6312 54.7885C87.7328 54.708 87.8612 54.6595 88.0173 54.642C88.1741 54.6225 88.3948 54.6137 88.6784 54.6137C88.8184 54.6137 89.0276 54.6177 89.3064 54.6253C89.5852 54.6325 89.7933 54.6372 89.9317 54.6372C90.0792 54.6372 90.3052 54.6325 90.6084 54.6253C90.9125 54.6177 91.1384 54.6137 91.2884 54.6137C91.9276 54.6137 92.4836 54.7411 92.9568 54.9942C93.4288 55.2482 93.8108 55.5948 94.1028 56.0338C94.3948 56.4724 94.6105 56.9768 94.7488 57.5426C94.8892 58.1095 94.9588 58.7112 94.9588 59.3489C94.9588 59.8866 94.8788 60.3897 94.7185 60.8565C94.5572 61.325 94.3285 61.7325 94.0309 62.0828C93.7328 62.4307 93.3784 62.7021 92.9673 62.8936C92.5541 63.085 92.1013 63.1797 91.6056 63.1797C91.4629 63.1797 91.2388 63.1678 90.932 63.1427C90.6232 63.1189 90.3932 63.1069 90.2373 63.1069C90.0452 63.1069 89.8064 63.1189 89.522 63.1427C89.2352 63.1678 89.0233 63.1797 88.8804 63.1797C88.6181 63.1797 88.3375 63.1411 88.0413 63.0623C87.7444 62.9843 87.5956 62.849 87.5956 62.6552C87.5956 62.5242 87.6632 62.3892 87.7977 62.2511C87.932 62.1138 88.1369 61.9371 88.4145 61.7254C88.69 61.5117 88.8905 61.3425 89.0144 61.2183C89.1381 61.0937 89.2 60.9724 89.2 60.8546ZM97.7589 61.8615V56.9736L99.2672 57.6971V60.816C99.2672 61.2836 99.4609 61.518 99.8457 61.518C99.8956 61.518 99.97 61.5132 100.067 61.5056C100.164 61.4985 100.24 61.4937 100.291 61.4937C100.334 61.4937 100.4 61.4985 100.493 61.5056C100.585 61.5132 100.653 61.518 100.694 61.518C101.44 61.518 101.813 61.0149 101.813 60.0112C101.813 59.4822 101.673 59.0459 101.394 58.7025C101.115 58.3582 100.776 58.0987 100.375 57.9239L97.9685 56.8434C97.44 56.6058 97.0316 56.4016 96.7436 56.2309C96.456 56.0601 96.254 55.9017 96.1381 55.7568C96.0213 55.6096 95.9641 55.4511 95.9641 55.2792C95.9641 54.8358 96.4044 54.6137 97.2856 54.6137H101.355C102.534 54.6137 103.123 54.9687 103.123 55.6824C103.123 56.0411 102.977 56.3852 102.683 56.7153C102.39 57.0464 102.045 57.3369 101.647 57.5905C102.08 57.7684 102.446 58.0143 102.741 58.3299C103.036 58.646 103.254 59.0106 103.396 59.4229C103.537 59.8348 103.608 60.2842 103.608 60.7702C103.608 61.3127 103.5 61.7711 103.286 62.1465C103.073 62.5198 102.791 62.7984 102.443 62.9779C102.095 63.1591 101.718 63.2493 101.31 63.2493C101.21 63.2493 100.981 63.2258 100.623 63.1781C100.264 63.1308 99.8988 63.1069 99.5272 63.1069C99.3264 63.1069 99.026 63.1189 98.6217 63.1427C98.2184 63.1678 97.9036 63.1797 97.6745 63.1797C97.4772 63.1797 97.2237 63.1411 96.912 63.0639C96.6025 62.987 96.4476 62.886 96.4476 62.763C96.4476 62.677 96.4888 62.5954 96.5712 62.5182C96.654 62.4402 96.782 62.3535 96.956 62.262C97.1305 62.1684 97.3977 62.0371 97.7589 61.8615ZM99.2672 55.7286V56.548C99.0269 56.4442 98.8121 56.3507 98.6217 56.2679C98.43 56.1863 98.2601 56.1091 98.1128 56.0351C97.9652 55.9626 97.8472 55.8913 97.7589 55.8233C97.7589 55.6765 97.7453 55.5649 97.7176 55.4877C97.6897 55.4114 97.6157 55.3728 97.4992 55.3728C97.3412 55.3728 97.262 55.479 97.262 55.6939C97.262 55.8189 97.4224 55.9701 97.744 56.1465C98.0652 56.3224 98.4604 56.5007 98.9296 56.679C99.3988 56.8569 99.8473 57.0122 100.274 57.1458C100.7 57.2804 101.005 57.3695 101.189 57.4142C101.389 57.212 101.532 57.0241 101.62 56.8466C101.708 56.6679 101.753 56.4505 101.753 56.1923C101.753 55.8098 101.63 55.5539 101.386 55.4246C101.142 55.2956 100.765 55.2303 100.257 55.2303C99.9049 55.2303 99.6513 55.2641 99.4977 55.3326C99.3441 55.4027 99.2672 55.5328 99.2672 55.7286ZM105.762 59.0269C105.762 58.2499 105.882 57.5208 106.119 56.8414C106.358 56.1608 106.736 55.6096 107.255 55.184C107.773 54.7586 108.424 54.5453 109.208 54.5453C109.772 54.5453 110.264 54.6563 110.683 54.8783C111.102 55.0997 111.445 55.4125 111.715 55.8157C111.985 56.2205 112.184 56.6921 112.314 57.2302C112.444 57.7695 112.509 58.3657 112.509 59.0165C112.509 59.4105 112.46 59.8496 112.361 60.3284C112.264 60.8088 112.119 61.2661 111.928 61.6999C111.737 62.1346 111.497 62.4904 111.205 62.7662C110.914 63.0416 110.586 63.1797 110.221 63.1797C110.021 63.1797 109.811 63.1678 109.596 63.1427C109.382 63.1189 109.212 63.1069 109.09 63.1069C108.982 63.1069 108.832 63.1189 108.637 63.1427C108.444 63.1678 108.267 63.1797 108.11 63.1797C107.812 63.1797 107.522 63.0655 107.237 62.8386C106.953 62.6102 106.7 62.2985 106.478 61.9057C106.256 61.5117 106.081 61.0655 105.954 60.5644C105.826 60.0645 105.762 59.5518 105.762 59.0269ZM109.23 55.1618C108.666 55.1618 108.212 55.3262 107.87 55.6544C107.528 55.982 107.288 56.3805 107.148 56.8505C107.012 57.319 106.942 57.7843 106.942 58.2456C106.942 58.9513 107.02 59.497 107.178 59.8809H107.166H107.19C107.27 59.2804 107.462 58.8195 107.762 58.4963C108.063 58.1727 108.476 57.875 108.998 57.604C109.52 57.3325 109.892 57.1072 110.113 56.9277C110.335 56.7483 110.444 56.4713 110.444 56.0971C110.444 55.7831 110.329 55.5475 110.098 55.3931C109.867 55.239 109.577 55.1618 109.23 55.1618ZM107.72 60.1183C107.72 60.9481 108.244 61.3636 109.289 61.3636C109.655 61.3636 109.97 61.2764 110.236 61.1025C110.5 60.929 110.711 60.7024 110.87 60.4235C111.028 60.1448 111.144 59.8381 111.218 59.5002C111.292 59.1634 111.329 58.8283 111.329 58.4947C111.329 58.049 111.305 57.6617 111.256 57.3341C111.209 57.005 111.107 56.7041 110.951 56.4295H110.941H110.914C110.882 56.8434 110.736 57.1602 110.474 57.3827C110.215 57.6052 109.824 57.8527 109.3 58.127C108.778 58.4011 108.385 58.6774 108.119 58.9561C107.852 59.2347 107.72 59.6231 107.72 60.1183ZM115.476 61.7433V56.1334C115.476 55.9404 115.42 55.7947 115.309 55.6955C115.197 55.5965 115.032 55.4767 114.813 55.3381C114.594 55.2004 114.484 55.0893 114.484 55.005C114.484 54.9043 114.598 54.8255 114.826 54.7678C115.051 54.7113 115.39 54.6711 115.84 54.6476C116.29 54.6253 116.881 54.6137 117.613 54.6137C118.142 54.6137 118.638 54.6711 119.096 54.7853C119.557 54.9011 119.969 55.0814 120.33 55.3294C120.691 55.5785 120.976 55.9002 121.183 56.2961C121.388 56.6921 121.492 57.1622 121.492 57.709C121.492 58.1874 121.388 58.6134 121.183 58.9851C120.976 59.3576 120.678 59.6482 120.288 59.8543C119.899 60.0605 119.439 60.164 118.909 60.164C118.495 60.164 118.135 60.09 117.83 59.9403C117.524 59.7907 117.294 59.5977 117.138 59.3608C116.983 59.1247 116.905 58.8789 116.905 58.6237C116.905 58.3506 116.983 58.1394 117.141 57.9829C117.18 57.9474 117.218 57.9088 117.257 57.8702C117.297 57.8316 117.327 57.7939 117.347 57.7537C117.366 57.7151 117.376 57.6689 117.376 57.6152C117.376 57.5725 117.354 57.5236 117.305 57.4718C117.411 57.4257 117.529 57.4019 117.658 57.4019C117.854 57.4019 118.019 57.4631 118.149 57.5829C118.28 57.7031 118.345 57.8412 118.345 57.9949C118.345 58.3821 118.517 58.5748 118.862 58.5748C119.516 58.5748 119.842 58.1095 119.842 57.1765C119.842 56.7884 119.747 56.4473 119.56 56.1537C119.371 55.8603 119.122 55.6334 118.809 55.4719C118.498 55.3098 118.161 55.2303 117.8 55.2303C117.527 55.2303 117.324 55.2601 117.19 55.3175C117.055 55.3751 116.989 55.4854 116.989 55.6466V57.7357C116.726 58.0246 116.595 58.3125 116.595 58.6002C116.595 58.9986 116.726 59.3338 116.989 59.608V61.6971C116.989 61.7875 117.033 61.8723 117.123 61.9518C117.215 62.0306 117.354 62.1285 117.543 62.244C117.734 62.3598 117.875 62.4561 117.968 62.5302C118.062 62.6057 118.108 62.6874 118.108 62.7733C118.108 62.8936 118.019 62.9915 117.837 63.0671C117.657 63.1427 117.48 63.1797 117.305 63.1797C117.209 63.1797 117.062 63.1678 116.866 63.1427C116.67 63.1189 116.502 63.1069 116.361 63.1069C116.184 63.1069 115.978 63.1189 115.747 63.1427C115.517 63.1678 115.35 63.1797 115.252 63.1797C115.089 63.1797 114.911 63.144 114.712 63.0714C114.514 62.9986 114.415 62.8991 114.415 62.7749C114.415 62.6938 114.458 62.6173 114.542 62.5481C114.626 62.4784 114.758 62.3892 114.935 62.281C115.112 62.1748 115.246 62.078 115.337 61.996C115.43 61.9148 115.476 61.8305 115.476 61.7433ZM10.15 54.6137H15.5536C15.7236 54.6137 15.874 54.6524 16.0052 54.7271C16.1369 54.8043 16.2012 54.9246 16.2012 55.0878C16.2012 55.202 16.1263 55.331 15.974 55.4767C15.822 55.6215 15.5949 55.8066 15.2939 56.0319C14.9919 56.259 14.7796 56.4255 14.654 56.5318C14.5287 56.6404 14.4667 56.732 14.4667 56.8088C14.4667 56.8537 14.5051 56.9099 14.582 56.9783C14.6587 57.0464 14.7144 57.104 14.7512 57.1515C14.7887 57.1988 14.806 57.2716 14.806 57.3679C14.806 57.4734 14.7676 57.5654 14.6908 57.6426C14.6144 57.7206 14.5107 57.7592 14.3832 57.7592C14.2132 57.7592 14.0776 57.7015 13.9771 57.5877C13.8784 57.4734 13.8284 57.3293 13.8284 57.153C13.8284 56.9855 13.8684 56.8016 13.946 56.6026C14.0243 56.4044 14.1248 56.1792 14.2476 55.9272C14.368 55.6749 14.4301 55.5224 14.4301 55.4671C14.4301 55.3577 14.2884 55.3027 14.0068 55.3027H11.5404C11.4211 55.3027 11.3328 55.3175 11.2752 55.3485C11.2163 55.3799 11.1863 55.4555 11.1863 55.5758V61.7668C11.1863 61.8364 11.2312 61.9077 11.3196 61.9789C11.408 62.0513 11.5484 62.1465 11.7399 62.265C11.932 62.3821 12.0764 62.4796 12.1736 62.5584C12.2708 62.6368 12.3196 62.7172 12.3196 62.8C12.3196 62.9023 12.2088 62.9915 11.9892 63.0671C11.7692 63.1427 11.5952 63.1797 11.47 63.1797C11.4064 63.1797 11.268 63.1678 11.054 63.1427C10.8416 63.1189 10.6264 63.1069 10.4096 63.1069C10.2144 63.1069 10.0144 63.1189 9.80762 63.1427C9.60003 63.1678 9.46073 63.1797 9.39313 63.1797C9.26796 63.1797 9.09522 63.1411 8.87401 63.0655C8.65244 62.9883 8.54235 62.9007 8.54235 62.8C8.54235 62.7184 8.59076 62.6401 8.6852 62.5629C8.78082 62.486 8.92445 62.3881 9.11435 62.2723C9.30639 62.1552 9.44762 62.06 9.53919 61.986C9.63238 61.9132 9.67798 61.8392 9.67798 61.7668V56.4414C9.67798 56.2559 9.65437 56.1139 9.60716 56.016C9.55958 55.9192 9.50077 55.8444 9.42875 55.7934C9.35631 55.7416 9.19594 55.6409 8.94644 55.4909C8.75758 55.3751 8.63834 55.2956 8.58634 55.2538C8.53481 55.2107 8.50834 55.1562 8.50834 55.0878C8.50834 54.7721 9.05554 54.6137 10.15 54.6137ZM16.6432 59.0269C16.6432 58.2499 16.7627 57.5208 17.0004 56.8414C17.2392 56.1608 17.6168 55.6096 18.136 55.184C18.6541 54.7586 19.3055 54.5453 20.0887 54.5453C20.6536 54.5453 21.1448 54.6563 21.564 54.8783C21.9824 55.0997 22.3259 55.4125 22.5964 55.8157C22.866 56.2205 23.0648 56.6921 23.1948 57.2302C23.3248 57.7695 23.3892 58.3657 23.3892 59.0165C23.3892 59.4105 23.3408 59.8496 23.242 60.3284C23.1447 60.8088 23.0004 61.2661 22.8083 61.6999C22.6184 62.1346 22.3779 62.4904 22.0856 62.7662C21.7952 63.0416 21.4676 63.1797 21.1019 63.1797C20.9012 63.1797 20.692 63.1678 20.4768 63.1427C20.2627 63.1189 20.0928 63.1069 19.9708 63.1069C19.8632 63.1069 19.7128 63.1189 19.5179 63.1427C19.3244 63.1678 19.148 63.1797 18.9915 63.1797C18.6932 63.1797 18.4028 63.0655 18.1184 62.8386C17.8337 62.6102 17.5812 62.2985 17.3592 61.9057C17.1375 61.5117 16.9619 61.0655 16.8352 60.5644C16.7068 60.0645 16.6432 59.5518 16.6432 59.0269ZM20.1107 55.1618C19.5473 55.1618 19.0933 55.3262 18.7512 55.6544C18.4087 55.982 18.1684 56.3805 18.0296 56.8505C17.8928 57.319 17.8236 57.7843 17.8236 58.2456C17.8236 58.9513 17.9012 59.497 18.0592 59.8809H18.0475H18.0711C18.1507 59.2804 18.3424 58.8195 18.6432 58.4963C18.944 58.1727 19.3572 57.875 19.8796 57.604C20.4016 57.3325 20.7728 57.1072 20.9944 56.9277C21.2156 56.7483 21.3244 56.4713 21.3244 56.0971C21.3244 55.7831 21.2099 55.5475 20.978 55.3931C20.7484 55.239 20.4573 55.1618 20.1107 55.1618ZM18.6008 60.1183C18.6008 60.9481 19.124 61.3636 20.1696 61.3636C20.5356 61.3636 20.8512 61.2764 21.1168 61.1025C21.3808 60.929 21.592 60.7024 21.7505 60.4235C21.9087 60.1448 22.0252 59.8381 22.0988 59.5002C22.1728 59.1634 22.2097 58.8283 22.2097 58.4947C22.2097 58.049 22.1861 57.6617 22.1372 57.3341C22.0904 57.005 21.9885 56.7041 21.8324 56.4295H21.8216H21.7952C21.7628 56.8434 21.6164 57.1602 21.3556 57.3827C21.0963 57.6052 20.7048 57.8527 20.1816 58.127C19.6596 58.4011 19.2656 58.6774 19.0004 58.9561C18.7332 59.2347 18.6008 59.6231 18.6008 60.1183ZM29.4952 63.1797C28.7252 63.1797 28.0484 63.003 27.464 62.652C26.882 62.2985 26.4332 61.8142 26.1192 61.196C25.8064 60.5795 25.6499 59.8838 25.6499 59.1112C25.6499 58.4294 25.7492 57.805 25.9452 57.239C26.1428 56.6727 26.4128 56.1879 26.7575 55.7863C27.1028 55.3831 27.4939 55.0758 27.9333 54.8641C28.3712 54.6524 28.83 54.5453 29.3048 54.5453C29.8124 54.5453 30.2743 54.6225 30.6896 54.7766C31.1056 54.9306 31.4332 55.1562 31.6724 55.4511C31.9108 55.7461 32.0309 56.0971 32.0309 56.5023C32.0309 56.8224 31.9584 57.0985 31.8136 57.3293C31.6704 57.5622 31.4732 57.7357 31.224 57.854C30.9732 57.9718 30.6928 58.0307 30.3788 58.0307C29.9024 58.0307 29.544 57.8926 29.3003 57.6175C29.0587 57.3414 28.9376 57.0638 28.9376 56.7853C28.9376 56.6503 28.9124 56.5453 28.8608 56.4713C28.8108 56.3957 28.7504 56.3587 28.678 56.3587C28.5692 56.3587 28.5144 56.4103 28.5144 56.5142C28.5144 56.5509 28.5292 56.6017 28.56 56.6667C28.4964 56.7451 28.3992 56.7853 28.2668 56.7853C27.9748 56.7853 27.83 56.6309 27.83 56.3224C27.83 56.1521 27.8948 56.0128 28.0264 55.9049C28.158 55.7947 28.3092 55.7406 28.48 55.7406C28.6532 55.7406 28.7944 55.7759 28.9035 55.8444C29.0128 55.9121 29.1236 56.01 29.2368 56.1357C29.3508 56.2619 29.4512 56.357 29.5367 56.4207C29.6236 56.4828 29.734 56.5142 29.8712 56.5142C30.0496 56.5142 30.19 56.4562 30.2944 56.3387C30.3975 56.2221 30.4492 56.0868 30.4492 55.9315C30.4492 55.641 30.3288 55.4273 30.088 55.2924C29.8476 55.1578 29.5468 55.0893 29.1852 55.0893C28.6943 55.0893 28.2636 55.2326 27.8948 55.5224C27.5264 55.8114 27.2448 56.1966 27.0496 56.679C26.8552 57.1602 26.7575 57.6835 26.7575 58.2468C26.7575 58.9071 26.9095 59.4866 27.2148 59.9833C27.5188 60.4813 27.9113 60.861 28.392 61.1243C28.8712 61.389 29.3611 61.5204 29.8607 61.5204C30.1705 61.5204 30.4712 61.4834 30.7636 61.4093C31.0572 61.3353 31.314 61.2112 31.5348 61.0373C31.7564 60.8637 31.9048 60.6341 31.9847 60.3479C32.1528 60.3717 32.29 60.4724 32.3948 60.6519C32.5001 60.8314 32.5525 61.0731 32.5525 61.3788C32.5525 61.744 32.4157 62.0629 32.1444 62.3363C31.8728 62.6086 31.5057 62.818 31.0412 62.9632C30.5776 63.1069 30.0616 63.1797 29.4952 63.1797ZM36.85 61.7668V55.5758C36.85 55.4555 36.8208 55.3799 36.7616 55.3485C36.704 55.3175 36.6155 55.3027 36.4959 55.3027H35.8135C35.53 55.3027 35.3873 55.3577 35.3873 55.4671C35.3873 55.5224 35.4491 55.6749 35.57 55.9272C35.6923 56.1792 35.7924 56.4044 35.8708 56.6026C35.9493 56.8016 35.9884 56.9855 35.9884 57.153C35.9884 57.3325 35.9388 57.4791 35.84 57.5905C35.7401 57.7031 35.6052 57.7592 35.4368 57.7592C35.3104 57.7592 35.2072 57.7206 35.1289 57.6426C35.0508 57.5654 35.0108 57.4734 35.0108 57.3679C35.0108 57.2688 35.0296 57.1957 35.07 57.1458C35.1096 57.0965 35.1655 57.0387 35.2408 56.9736C35.3164 56.9083 35.3532 56.8537 35.3532 56.8088C35.3532 56.7276 35.2864 56.6297 35.1525 56.5154C35.0196 56.4028 34.8048 56.2348 34.5096 56.0176C34.2144 55.7978 33.9916 55.616 33.8428 55.4703C33.6924 55.3261 33.6172 55.1992 33.6172 55.0878C33.6172 54.9246 33.6836 54.8043 33.8148 54.7271C33.9456 54.6524 34.0964 54.6137 34.266 54.6137H40.9428C41.1141 54.6137 41.2661 54.6524 41.3972 54.7271C41.5284 54.8043 41.5944 54.9246 41.5944 55.0878C41.5944 55.202 41.5184 55.331 41.3664 55.4767C41.2144 55.6215 40.9872 55.8066 40.6864 56.0319C40.384 56.259 40.172 56.4255 40.0463 56.5318C39.9208 56.6404 39.8588 56.732 39.8588 56.8088C39.8588 56.8537 39.8972 56.9099 39.974 56.9783C40.0505 57.0464 40.1068 57.104 40.1436 57.1515C40.1805 57.1988 40.1983 57.2716 40.1983 57.3679C40.1983 57.4734 40.1601 57.5654 40.0832 57.6426C40.0065 57.7206 39.9032 57.7592 39.7748 57.7592C39.6056 57.7592 39.47 57.7015 39.3692 57.5877C39.2705 57.4734 39.2204 57.3293 39.2204 57.153C39.2204 56.9855 39.2601 56.8016 39.3384 56.6026C39.416 56.4044 39.5164 56.1792 39.6392 55.9272C39.76 55.6749 39.8224 55.5224 39.8224 55.4671C39.8224 55.3577 39.6808 55.3027 39.3988 55.3027H38.7132C38.5965 55.3027 38.508 55.3191 38.4488 55.3504C38.3884 55.3831 38.3588 55.4571 38.3588 55.5758V61.7668C38.3588 61.838 38.4032 61.9088 38.4932 61.9801C38.5816 62.0529 38.7236 62.1465 38.9151 62.265C39.1068 62.3821 39.2516 62.4796 39.3488 62.5584C39.4444 62.6368 39.4928 62.7172 39.4928 62.8C39.4928 62.9023 39.3824 62.9915 39.1628 63.0671C38.9416 63.1427 38.7689 63.1797 38.6435 63.1797C38.5804 63.1797 38.4416 63.1678 38.226 63.1427C38.0109 63.1189 37.7968 63.1069 37.5815 63.1069C37.3868 63.1069 37.1869 63.1189 36.98 63.1427C36.7724 63.1678 36.6352 63.1797 36.5688 63.1797C36.4415 63.1797 36.2672 63.1427 36.0476 63.0671C35.8281 62.9915 35.7188 62.9023 35.7188 62.8C35.7188 62.7212 35.766 62.6433 35.8591 62.5645C35.9532 62.486 36.0964 62.3881 36.2869 62.2723C36.4784 62.1552 36.6197 62.06 36.712 61.986C36.8044 61.9132 36.85 61.8392 36.85 61.7668ZM44.7108 56.0382L44.3448 56.5023C43.926 56.2647 43.5664 56.0041 43.2648 55.7194C42.9632 55.436 42.8128 55.1901 42.8128 54.9811C42.8128 54.7364 43.0369 54.6137 43.4836 54.6137H45.7604C46.0072 54.6137 46.1708 54.6492 46.252 54.7216C46.3332 54.794 46.3743 54.9059 46.3743 55.0539C46.3743 55.2136 46.2696 55.436 46.0604 55.7222C45.8504 56.0068 45.624 56.3121 45.3788 56.6381C45.1352 56.9648 44.9277 57.3238 44.7564 57.7134C44.5852 58.1035 44.4996 58.5214 44.4996 58.968C44.4996 59.4404 44.576 59.8706 44.7312 60.2544C44.8864 60.6384 45.1284 60.9453 45.458 61.1754C45.7889 61.405 46.2003 61.5204 46.6928 61.5204C47.1164 61.5204 47.4233 61.4332 47.6132 61.2581C47.8024 61.0834 47.8964 60.8239 47.8964 60.4772C47.8964 60.2711 47.8252 60.0055 47.6828 59.682C47.5407 59.3592 47.3505 59.0285 47.1132 58.6906C46.8745 58.3522 46.6016 58.0378 46.2948 57.7472C45.9876 57.456 45.6704 57.2343 45.346 57.0821L45.6328 56.6325C45.9393 56.7957 46.2345 56.9898 46.5148 57.2167C46.796 57.4435 47.0544 57.7003 47.2872 57.986C47.5204 58.2727 47.7163 58.5791 47.8728 58.9098H47.8964V56.0382C47.8964 55.9121 47.8524 55.8034 47.7648 55.7162C47.6781 55.6279 47.5528 55.534 47.3887 55.436C47.2252 55.3381 47.106 55.2538 47.0308 55.184C46.954 55.1144 46.9156 55.0269 46.9156 54.923C46.9156 54.8609 47.022 54.794 47.2344 54.7216C47.4468 54.6492 47.6232 54.6137 47.7664 54.6137C47.8212 54.6137 47.9365 54.6253 48.1105 54.6492C48.2844 54.6743 48.4336 54.6862 48.5588 54.6862C48.6828 54.6862 48.8356 54.6743 49.0172 54.6492C49.1993 54.6253 49.3212 54.6137 49.3816 54.6137C49.6204 54.6137 49.8432 54.6447 50.0501 54.7064C50.2581 54.7678 50.3609 54.8554 50.3609 54.9687C50.3609 55.0491 50.2384 55.165 49.9936 55.3175C49.7488 55.4703 49.578 55.5829 49.482 55.6553C49.3849 55.7294 49.3356 55.8412 49.3356 55.9893V61.6585C49.3356 61.7652 49.3816 61.8591 49.4748 61.9403C49.566 62.0214 49.7064 62.115 49.8933 62.2237C50.0812 62.3316 50.2196 62.4235 50.3096 62.5008C50.3992 62.5764 50.4453 62.6639 50.4453 62.763C50.4453 62.8967 50.3169 62.9986 50.0592 63.0714C49.8021 63.144 49.5288 63.1797 49.2417 63.1797C49.1208 63.1797 48.92 63.1559 48.64 63.1069C48.3624 63.0591 48.1548 63.036 48.014 63.036C47.9112 63.036 47.6224 63.0591 47.1476 63.1069C46.6736 63.1559 46.2768 63.1797 45.9616 63.1797C45.5044 63.1797 45.0632 63.0655 44.638 62.837C44.2148 62.607 43.868 62.2631 43.6016 61.8038C43.3344 61.3441 43.202 60.7912 43.202 60.1418C43.202 59.5105 43.2932 58.9441 43.4764 58.4426C43.6604 57.9435 43.8492 57.5506 44.0456 57.2657C44.2416 56.9827 44.4821 56.6639 44.7664 56.3082C45.0516 55.9523 45.1948 55.7238 45.1948 55.6215C45.1948 55.524 45.1596 55.4571 45.09 55.423C45.0188 55.389 44.8892 55.3728 44.6988 55.3728C44.4776 55.3728 44.3363 55.3815 44.2745 55.3995C44.2121 55.4153 44.1796 55.46 44.1796 55.5295C44.1796 55.639 44.3567 55.8085 44.7108 56.0382ZM53.22 57.9001L54.7296 58.8239V61.8158C54.7296 61.9164 54.778 62.0072 54.8767 62.0883C54.974 62.1684 55.1228 62.2631 55.3232 62.3702C55.5224 62.4764 55.6705 62.5645 55.766 62.6297C55.862 62.6945 55.9092 62.7678 55.9092 62.8461C55.9092 62.9732 55.8073 63.0714 55.6036 63.1379C55.4 63.2048 55.2072 63.237 55.0257 63.237C54.9064 63.237 54.7396 63.2258 54.5272 63.2008C54.3136 63.1765 54.1304 63.1646 53.9768 63.1646C53.8256 63.1646 53.6424 63.1765 53.4269 63.2008C53.2132 63.2258 53.0448 63.237 52.9273 63.237C52.7572 63.237 52.5684 63.1945 52.3576 63.1069C52.1484 63.0205 52.042 62.9127 52.042 62.7853C52.042 62.708 52.0892 62.6401 52.1809 62.5819C52.2737 62.523 52.418 62.4442 52.6159 62.3479C52.8128 62.2511 52.9641 62.164 53.0668 62.0856C53.1684 62.0056 53.22 61.9164 53.22 61.8158V57.9001ZM57.7748 58.8239L59.2836 57.9001V61.8158C59.2836 61.9164 59.3325 62.0072 59.4312 62.0883C59.5285 62.1684 59.6788 62.2631 59.8781 62.3702C60.0789 62.4764 60.2277 62.5645 60.3224 62.6297C60.4181 62.6945 60.4648 62.7678 60.4648 62.8461C60.4648 62.9732 60.3632 63.0714 60.1597 63.1379C59.9564 63.2048 59.7632 63.237 59.58 63.237C59.4625 63.237 59.2957 63.2258 59.0816 63.2008C58.8692 63.1765 58.6848 63.1646 58.5312 63.1646C58.3796 63.1646 58.1965 63.1765 57.9816 63.2008C57.7664 63.2258 57.5996 63.237 57.4796 63.237C57.2968 63.237 57.1035 63.2048 56.9 63.1379C56.6964 63.0714 56.5948 62.9732 56.5948 62.8461C56.5948 62.7689 56.6408 62.6977 56.7341 62.6341C56.8264 62.5688 56.9725 62.4828 57.1733 62.3746C57.3757 62.2663 57.526 62.1716 57.6244 62.0915C57.7248 62.01 57.7748 61.918 57.7748 61.8158V58.8239ZM56.076 57.9582H56.6644C57.0229 57.9363 57.4149 57.8186 57.8424 57.6079C58.2705 57.3978 58.6256 57.1916 58.9116 56.9882C59.1984 56.7853 59.4021 56.6356 59.5196 56.5366C59.7232 56.4207 59.8248 56.2348 59.8248 55.9774C59.8248 55.7317 59.7304 55.5965 59.5436 55.5758C59.4312 55.5758 59.3604 55.616 59.3292 55.6971C59.2984 55.7787 59.2836 55.9002 59.2836 56.0617V56.3686L57.7748 57.2832V55.7294C57.7748 55.666 57.7353 55.6247 57.6552 55.6056C57.5756 55.5861 57.4948 55.5669 57.4149 55.5491C57.334 55.5295 57.2924 55.4909 57.2924 55.4333C57.1109 55.3119 57.02 55.165 57.02 54.9942C57.02 54.8947 57.0612 54.8119 57.1404 54.7423C57.222 54.6727 57.338 54.6372 57.4932 54.6372C57.6865 54.6372 57.974 54.6325 58.3549 54.6209C58.7333 54.609 59.0212 54.6034 59.214 54.6034C59.6832 54.6034 60.0757 54.6965 60.3929 54.8847C60.7101 55.0735 60.8692 55.3903 60.8692 55.8365C60.8692 55.9909 60.8396 56.1449 60.782 56.2961C60.7244 56.4485 60.6436 56.5866 60.5416 56.7113C60.4385 56.8343 60.3232 56.935 60.194 57.0122L57.2913 58.8016C57.2571 58.8167 57.2292 58.8239 57.2088 58.8239C57.1656 58.8239 57.1052 58.8088 57.0285 58.7781C56.9505 58.7467 56.8632 58.7112 56.7672 58.6694C56.6717 58.6285 56.5805 58.5938 56.4964 58.5676C56.412 58.5425 56.3268 58.529 56.2397 58.529C56.1553 58.529 56.0729 58.5425 55.9916 58.5655C55.9108 58.5915 55.828 58.6237 55.7408 58.6623C55.6557 58.7009 55.5684 58.7379 55.4833 58.7718C55.3973 58.8072 55.3356 58.8239 55.2944 58.8239C55.2724 58.8239 55.2437 58.8167 55.2144 58.8016L52.3132 57.0122C52.1188 56.8979 51.9592 56.7248 51.8324 56.49C51.7059 56.2574 51.6425 56.0199 51.6425 55.7787C51.6425 54.9942 52.1924 54.6034 53.2908 54.6034C53.4841 54.6034 53.7716 54.609 54.1508 54.6209C54.5316 54.6325 54.8176 54.6372 55.0124 54.6372C55.1668 54.6372 55.2852 54.6727 55.3649 54.7411C55.4448 54.8092 55.484 54.894 55.484 54.9942C55.484 55.165 55.3944 55.3119 55.2144 55.4333C55.2144 55.4897 55.1728 55.5283 55.092 55.5475C55.0124 55.5669 54.9316 55.5861 54.8501 55.6067C54.7689 55.6263 54.7296 55.6673 54.7296 55.7294V57.2832L53.22 56.3686V56.0617C53.22 55.9002 53.206 55.7787 53.176 55.6971C53.1464 55.616 53.0744 55.5758 52.9609 55.5758C52.7737 55.5965 52.6789 55.7317 52.6789 55.9774C52.6789 56.2348 52.7808 56.4207 52.9845 56.5366C53.2796 56.7603 53.7324 57.0444 54.3396 57.3914C54.9488 57.7373 55.5273 57.9255 56.076 57.9582ZM63.066 61.6585V56.0505C63.066 55.9598 63.022 55.8751 62.9337 55.7962C62.8448 55.7181 62.708 55.6199 62.522 55.5041C62.3365 55.3871 62.2036 55.2972 62.1236 55.2319C62.0452 55.1666 62.006 55.097 62.006 55.0181C62.006 54.8924 62.1049 54.7908 62.302 54.72C62.5011 54.6492 62.6796 54.6137 62.842 54.6137C62.9584 54.6137 63.1324 54.6253 63.3644 54.6492C63.5956 54.6743 63.7904 54.6862 63.9512 54.6862C64.0764 54.6862 64.2384 54.6743 64.4352 54.6492C64.6296 54.6253 64.7845 54.6137 64.8948 54.6137C65.0752 54.6137 65.2553 54.6508 65.432 54.7248C65.6108 54.7988 65.6988 54.8963 65.6988 55.0197C65.6988 55.1041 65.6548 55.1829 65.5661 55.2554C65.4776 55.3285 65.3376 55.423 65.1432 55.5411C64.9497 55.6601 64.8065 55.7592 64.7149 55.8365C64.6248 55.9153 64.5792 56.0012 64.5792 56.0963V58.1851C64.3168 58.4549 64.1852 58.7913 64.1852 59.1929C64.1852 59.4806 64.3168 59.7679 64.5792 60.0573V62.1465C64.5792 62.3049 64.6457 62.4132 64.7804 62.4725C64.9145 62.5329 65.1176 62.5629 65.3908 62.5629C65.752 62.5629 66.0884 62.4828 66.3996 62.3212C66.7121 62.1596 66.9612 61.9332 67.15 61.6394C67.3372 61.3456 67.432 61.0046 67.432 60.6161C67.432 59.6836 67.1061 59.2183 66.4525 59.2183C66.1077 59.2183 65.9352 59.4105 65.9352 59.7978C65.9352 59.9523 65.8685 60.09 65.736 60.2098C65.6043 60.33 65.4425 60.3909 65.2488 60.3909C65.1176 60.3909 64.9999 60.367 64.8948 60.318C64.944 60.2711 64.9672 60.2229 64.9672 60.1772C64.9672 60.0991 64.9513 60.0411 64.9184 59.9993C64.8864 59.9594 64.8243 59.8961 64.7312 59.8082C64.5732 59.6514 64.4953 59.4376 64.4953 59.1694C64.4953 58.9159 64.5732 58.671 64.7288 58.4338C64.8848 58.197 65.1148 58.0024 65.42 57.8527C65.7252 57.7031 66.0857 57.6287 66.5 57.6287C66.8948 57.6287 67.2536 57.6868 67.5749 57.8042C67.8964 57.9209 68.1693 58.0899 68.3948 58.3113C68.6205 58.5317 68.7921 58.7929 68.9084 59.0922C69.0244 59.3931 69.0825 59.7238 69.0825 60.0843C69.0825 60.6285 68.9791 61.0993 68.7728 61.4953C68.5656 61.893 68.2812 62.2141 67.92 62.4633C67.5588 62.7109 67.1477 62.892 66.6872 63.0078C66.228 63.1221 65.7329 63.1797 65.2036 63.1797C64.4721 63.1797 63.8804 63.1678 63.4308 63.1456C62.9804 63.1221 62.6412 63.0819 62.4157 63.0237C62.1884 62.9644 62.0748 62.886 62.0748 62.7853C62.0748 62.6993 62.184 62.5883 62.4041 62.4518C62.6224 62.3152 62.7873 62.1967 62.8992 62.0975C63.0101 61.9985 63.066 61.8528 63.066 61.6585ZM71.926 57.2852C71.9924 57.2688 72.0308 57.261 72.0452 57.261C72.1485 57.261 72.2 57.3309 72.2 57.4734C72.2 57.5917 72.1764 57.7221 72.1296 57.8631C72.0824 58.004 72.0421 58.1107 72.0096 58.1851C71.9452 58.1449 71.9057 58.1047 71.8937 58.0664C71.8812 58.0278 71.8388 57.9849 71.7653 57.9371C71.6924 57.8898 71.5257 57.8097 71.2664 57.6987C69.2061 56.8104 68.1752 55.979 68.1752 55.2064C68.1752 54.8103 68.5557 54.6137 69.3184 54.6137H71.0917C71.9173 54.6137 72.33 54.7522 72.33 55.0297C72.33 55.1296 72.2048 55.2585 71.9524 55.4169C71.7017 55.5774 71.51 55.7194 71.3805 55.8444C71.2492 55.9682 71.184 56.1521 71.184 56.3957V56.8088C70.5617 56.554 70.0512 56.2766 69.652 55.979C69.652 55.7978 69.6397 55.6649 69.6165 55.5774C69.5941 55.4897 69.5337 55.4452 69.4376 55.4452C69.2872 55.4452 69.2125 55.5356 69.2125 55.7181C69.2125 55.9224 69.3817 56.1405 69.7193 56.3701C70.0568 56.6017 70.4492 56.8028 70.8936 56.9768C71.3392 57.1483 71.6825 57.2506 71.926 57.2852ZM69.652 61.5291V57.2343C69.9661 57.4257 70.4688 57.6482 71.1604 57.9017V61.7552C71.1604 61.8631 71.2117 61.9579 71.314 62.0378C71.4168 62.1198 71.5665 62.207 71.7608 62.3017C71.9556 62.3968 72.1013 62.4784 72.1977 62.5465C72.2932 62.615 72.3404 62.6993 72.3404 62.8C72.3404 62.9187 72.2432 63.0109 72.0496 63.0787C71.8552 63.1456 71.6924 63.1797 71.56 63.1797C71.4036 63.1797 71.218 63.1678 71.0016 63.1427C70.7845 63.1189 70.578 63.1069 70.382 63.1069C70.1336 63.1069 69.9065 63.1189 69.6989 63.1427C69.4912 63.1678 69.3684 63.1797 69.33 63.1797C69.1517 63.1797 68.9836 63.1527 68.824 63.0997C68.6664 63.0464 68.5868 62.9732 68.5868 62.8815C68.5868 62.7466 68.7152 62.5942 68.9688 62.4219C69.2236 62.2511 69.4012 62.121 69.5013 62.0306C69.6012 61.9387 69.652 61.7724 69.652 61.5291ZM75.9296 56.0382L75.5641 56.5023C75.1448 56.2647 74.7852 56.0041 74.4844 55.7194C74.182 55.436 74.0316 55.1901 74.0316 54.9811C74.0316 54.7364 74.2557 54.6137 74.7029 54.6137H76.98C77.226 54.6137 77.3896 54.6492 77.4712 54.7216C77.552 54.794 77.5933 54.9059 77.5933 55.0539C77.5933 55.2136 77.4884 55.436 77.2793 55.7222C77.0701 56.0068 76.8428 56.3121 76.598 56.6381C76.3548 56.9648 76.1465 57.3238 75.9752 57.7134C75.8044 58.1035 75.7188 58.5214 75.7188 58.968C75.7188 59.4404 75.7953 59.8706 75.9508 60.2544C76.1052 60.6384 76.3473 60.9453 76.6776 61.1754C77.0077 61.405 77.4197 61.5204 77.9116 61.5204C78.3353 61.5204 78.642 61.4332 78.832 61.2581C79.0212 61.0834 79.1156 60.8239 79.1156 60.4772C79.1156 60.2711 79.0448 60.0055 78.9016 59.682C78.7605 59.3592 78.5697 59.0285 78.332 58.6906C78.0937 58.3522 77.8204 58.0378 77.5136 57.7472C77.2073 57.456 76.89 57.2343 76.5656 57.0821L76.8516 56.6325C77.1581 56.7957 77.4533 56.9898 77.7337 57.2167C78.0156 57.4435 78.2732 57.7003 78.5064 57.986C78.7392 58.2727 78.9361 58.5791 79.092 58.9098H79.1156V56.0382C79.1156 55.9121 79.0716 55.8034 78.9845 55.7162C78.8976 55.6279 78.7716 55.534 78.6081 55.436C78.444 55.3381 78.3249 55.2538 78.2496 55.184C78.1732 55.1144 78.1348 55.0269 78.1348 54.923C78.1348 54.8609 78.2412 54.794 78.4532 54.7216C78.6657 54.6492 78.8429 54.6137 78.9856 54.6137C79.0399 54.6137 79.1553 54.6253 79.3293 54.6492C79.5036 54.6743 79.6524 54.6862 79.7781 54.6862C79.9016 54.6862 80.0553 54.6743 80.2364 54.6492C80.4181 54.6253 80.5404 54.6137 80.6012 54.6137C80.8396 54.6137 81.0624 54.6447 81.2689 54.7064C81.4769 54.7678 81.5797 54.8554 81.5797 54.9687C81.5797 55.0491 81.4576 55.165 81.2128 55.3175C80.968 55.4703 80.7972 55.5829 80.7008 55.6553C80.6037 55.7294 80.5552 55.8412 80.5552 55.9893V61.6585C80.5552 61.7652 80.6012 61.8591 80.6937 61.9403C80.7849 62.0214 80.9256 62.115 81.1121 62.2237C81.3 62.3316 81.4384 62.4235 81.5289 62.5008C81.618 62.5764 81.6644 62.6639 81.6644 62.763C81.6644 62.8967 81.5357 62.9986 81.278 63.0714C81.0213 63.144 80.7484 63.1797 80.4604 63.1797C80.3396 63.1797 80.1393 63.1559 79.8588 63.1069C79.5816 63.0591 79.3736 63.036 79.2336 63.036C79.1304 63.036 78.8413 63.0591 78.3663 63.1069C77.8928 63.1559 77.496 63.1797 77.1804 63.1797C76.7232 63.1797 76.282 63.0655 75.8577 62.837C75.4344 62.607 75.0876 62.2631 74.8204 61.8038C74.5536 61.3441 74.4207 60.7912 74.4207 60.1418C74.4207 59.5105 74.5121 58.9441 74.6953 58.4426C74.88 57.9435 75.0688 57.5506 75.2644 57.2657C75.4604 56.9827 75.7009 56.6639 75.9861 56.3082C76.2704 55.9523 76.4136 55.7238 76.4136 55.6215C76.4136 55.524 76.3784 55.4571 76.3089 55.423C76.2377 55.389 76.1084 55.3728 75.918 55.3728C75.6968 55.3728 75.5552 55.3815 75.4933 55.3995C75.4313 55.4153 75.3992 55.46 75.3992 55.5295C75.3992 55.639 75.5756 55.8085 75.9296 56.0382ZM78.8445 53.8556C78.626 53.9506 78.3384 53.998 77.9828 53.998C77.7392 53.998 77.4563 53.9745 77.1348 53.9271C76.8133 53.8794 76.6392 53.8556 76.6156 53.8556C76.1036 53.8556 75.8488 53.6657 75.8488 53.288C75.8488 52.9234 76.1036 52.7407 76.6141 52.7407C76.8736 52.7407 77.074 52.7884 77.216 52.882C77.356 52.9752 77.4268 53.1104 77.4268 53.288C77.4268 53.3903 77.5345 53.4419 77.7468 53.4419C77.9429 53.4419 78.04 53.3903 78.04 53.288C78.04 52.9234 78.3088 52.7407 78.8445 52.7407C79.0856 52.7407 79.2763 52.7884 79.4153 52.8832C79.5532 52.9783 79.6229 53.1129 79.6229 53.288C79.6229 53.473 79.5532 53.6143 79.4164 53.7106C79.2796 53.8074 79.0888 53.8556 78.8445 53.8556ZM99.9213 41.2325L99.9197 41.237H98.7304V38.7693L102.967 39.6193L103.474 41.1042V41.237H102.179L102.179 41.2325C102.179 39.5793 99.9229 39.5761 99.9213 41.2325ZM101.381 41.2317C101.397 40.5521 100.707 40.5633 100.717 41.2327C100.929 41.2327 101.16 41.237 101.379 41.237L101.381 41.2317ZM99.9242 46.2102C99.9877 44.6502 102.114 44.653 102.177 46.2102H103.474V44.277H98.7304V46.2102H99.9242ZM101.382 46.2102C101.349 45.6271 100.756 45.6355 100.718 46.2102H101.382ZM81.5913 46.3366C82.3268 45.44 84.076 45.4946 84.6777 46.5111V45.6971H81.5913V46.3366ZM83.8975 47.2088C83.7763 46.1884 82.3708 46.1689 82.2462 47.2088H83.8975ZM85.4979 47.2088C85.6147 45.2076 89.1875 45.1966 89.3039 47.2088H89.3413V45.6971H85.4776V47.2088H85.4979ZM88.5007 47.2088C88.3995 46.1027 86.4101 46.1403 86.3002 47.2088H88.5007ZM30.2421 40.9265C30.2419 39.2733 27.9861 39.2701 27.9844 40.9265L27.9828 41.965H27.2624V45.2983H26.62V40.0385L29.9736 39.0467L32.0059 38.3735L33.5395 36.1688L33.5146 36.1549L33.566 36.1455L33.5546 35.0785H35.0228V35.9722L35.0194 35.9765L35.0228 35.9792V36.0112H35.063L36.6016 37.235V40.0692L37.0125 39.9836L37.0131 39.9859L37.0934 39.9667L37.3881 39.9052V39.8962L43.5032 38.4334V39.6656H44.3032V38.242L45.4228 37.9742V44.4306H43.0032V41.0145H42.9897C42.8819 38.9309 37.5113 38.9635 37.5113 41.0779H37.5396V45.2983H30.9835V41.965H30.2424L30.2421 40.9265ZM29.4445 40.9257L29.4425 42.0011H28.7828V40.9266H28.7797C28.7701 40.2572 29.4602 40.2459 29.4445 40.9257ZM42.2032 41.0763H42.1903C42.2032 39.8553 38.4417 39.8773 38.3155 41.0145H38.3396V45.2983H42.2032V41.0763ZM84.6777 39.9078H84.6494C84.6494 37.7932 90.0197 37.7608 90.1277 39.8443H90.1413V48.7816H90.8952V38.6419L79.1864 36.6024V39.0225H79.9165V42.8653H79.1864V43.4614H84.6777V39.9078ZM89.3413 39.9062H89.3283C89.3413 38.685 85.5798 38.7071 85.4535 39.8443H85.4776V43.4614H89.3413V39.9062ZM40.6457 38.2981C40.4947 38.083 40.2043 38.1287 40.1057 38.4273L40.6457 38.2981ZM32.8782 41.4473H32.8672V43.0997H35.4681V41.2354H35.4878C35.2525 40.0199 32.8685 40.0995 32.8782 41.4473ZM32.0955 41.2354C32.3299 38.9837 36.3022 39.0568 36.3022 41.4468L36.268 41.4467V43.9172H35.4681V43.8957H35.2531V44.6194H32.966V43.8957H32.8672V43.9172H32.0672V41.2354H32.0955ZM46.2229 36.8485H46.2212L46.2229 36.964L46.8864 36.8053C46.8715 36.1691 46.2102 36.1932 46.2197 36.8485H46.2229ZM97.2702 37.9211L97.2704 48.7816H97.9304V38.6087L97.8989 37.906C97.8557 36.7769 97.4735 36.0111 96.653 34.9089L95.4526 34.6847C94.8764 35.1322 94.4587 35.6427 94.2681 36.3464V36.4621H94.27V48.7816H95.0108L95.0124 37.9211C95.0141 36.2647 97.2699 36.2679 97.2702 37.9211ZM96.4726 37.9203C96.4738 37.2404 95.8108 37.2521 95.8108 37.9212V39.0492H96.4705L96.4726 37.9203ZM64.0885 35.5861H65.494L64.7912 34.8869L64.0885 35.5861ZM65.5922 32.964H63.9901L64.7912 33.761L65.5922 32.964ZM82.1589 34.7505V32.3655L79.8348 31.2801V34.2258L79.9808 34.3142L82.1589 34.7505ZM79.0348 33.7415V31.1788L76.3216 31.3899V32.0989L79.0348 33.7415ZM103.474 48.7816V47.0061H102.179V48.7816H103.474ZM103.474 43.481V42.033H102.179V43.481H103.474ZM98.7304 42.033V43.481H99.9197V42.033H98.7304ZM98.7304 47.0061V48.7816H99.9197V47.0061H98.7304ZM101.379 43.481V42.033H100.72V43.481H101.379ZM101.379 48.7816V47.0061H100.72V48.7816H101.379ZM27.2624 48.7816V46.0944H26.62V48.7816H27.2624ZM30.9835 46.0944V48.7816H32.2304V46.0944H30.9835ZM29.4425 48.7816V46.0944H28.7828V48.7816H29.4425ZM29.4425 45.2983V42.7972H28.7828V45.2983H29.4425ZM46.8824 48.7816V46.962H46.2229V48.7816H46.8824ZM46.8824 46.1659V43.2744H46.2229V46.1659H46.8824ZM46.8824 42.4784V40.4112H46.2229V42.4784H46.8824ZM46.8824 39.6152V37.625L46.2229 37.7828V39.6152H46.8824ZM47.6824 37.4337V44.4306H50.6168V43.6569H49.956V39.7609H50.6168V36.7318L49.4044 37.0218V38.581H48.6044V37.2131L47.6824 37.4337ZM47.6824 45.2267V48.7816H50.6168V45.2267H47.6824ZM96.4705 48.7816V46.4267H95.8108V48.7816H96.4705ZM96.4705 45.6307V43.1152H95.8108V45.6307H96.4705ZM96.4705 42.3193V39.8452H95.8108V42.3193H96.4705ZM42.2032 48.7816V46.0944H41.4256V48.7816H42.2032ZM43.0032 45.2267V48.7816H45.4228V45.2267H43.0032ZM89.3413 48.7816V48.0048H87.8549V48.7816H89.3413ZM89.3413 44.901V44.2575H85.4776V44.901H89.3413ZM35.3064 48.7816V46.0944H33.0305V48.7816H35.3064ZM36.1065 46.0944V48.7816H37.5396V46.0944H36.1065ZM40.6256 48.7816V46.0944H39.9628V48.7816H40.6256ZM34.8256 38.0967V37.4177H34.1629V38.0967H34.8256ZM35.6444 38.8927H33.3572V38.0967H33.3628V37.4177H33.3572V36.6217H35.6444V38.8927ZM40.6256 43.8233V41.0623H41.4256V43.8233H41.8091V44.6194H38.7648V43.8233H39.1628V41.0623H39.9628V43.8233H40.6256ZM87.7637 42.0681V39.5016H88.5636V42.0681H88.9473V42.8641H85.9028V42.0681H86.3008V39.5016H87.1008V42.0681H87.7637ZM39.1628 48.7816V46.0944H38.3396V48.7816H39.1628ZM91.6952 38.7813V48.7816H93.47V39.0905L91.6952 38.7813ZM87.0549 48.7816V48.0048H85.4776V48.7816H87.0549ZM82.6952 48.7816V48.0048H81.5913V48.7816H82.6952ZM83.4952 48.0048V48.7816H84.6777V48.0048H83.4952ZM80.7913 48.7816V45.6971H79.1864V48.7816H80.7913ZM84.6777 44.901V44.2575H79.1864V44.901H84.6777ZM93.47 37.7159V37.0571H91.9263L93.47 37.7159ZM79.1864 34.7403V35.7943L92.4192 38.0993L89.8968 37.0571H89.8046L89.8009 37.0753L89.7101 37.0571H89.6733V37.0497L79.6987 35.0516L79.7049 35.0211L79.6821 35.0389L79.1864 34.7403ZM72.3448 45.7183V44.3359H70.9633V45.7183H72.3448ZM72.3448 43.5399V42.2065H70.9633V43.5399H72.3448ZM55.6094 42.9807V41.5983H54.4694V42.9807H55.6094ZM55.6094 40.8025V39.4691H54.4694V40.8025H55.6094ZM55.9153 38.6758H56.2694V42.9807H56.4593V43.7767H56.2694H55.6094H54.4694H53.8094H53.6029V42.9807H53.8094V38.6758H54.2097V38.673H55.9153V38.6758ZM76.3273 42.9807V41.5983H74.9456V42.9807H76.3273ZM76.3273 40.8025V39.4691H74.9456V40.8025H76.3273ZM76.698 38.6758H77.1273V42.9807H77.3573V43.7767H77.1273H76.3273H74.9456H74.1456H73.8952V42.9807H74.1456V38.6758H74.6308V38.673H76.698V38.6758ZM44.7459 70.8732L44.6423 70.3623C44.9596 70.2141 45.2834 69.9899 45.6127 69.6866L46.101 69.8L44.9517 74.8026L44.2196 74.6327L45.1082 70.7652C44.9534 70.8179 44.834 70.8536 44.7459 70.8732ZM56.9863 75.1277L57.6348 75.1053L57.606 75.428C57.6085 75.4525 57.609 75.4856 57.6085 75.5289C57.6073 75.5721 57.6048 75.6124 57.6009 75.6514C57.6085 75.9508 57.6694 76.102 57.7839 76.1073C57.8739 76.1115 57.937 76.0488 57.9724 75.9222C58.0084 75.7955 58.0317 75.6502 58.0463 75.4882C58.053 75.4068 58.0605 75.3316 58.0693 75.2631C58.0781 75.1942 58.086 75.109 58.0948 75.0089C58.1097 74.8901 58.1315 74.7204 58.1602 74.5023C58.002 74.6227 57.8397 74.6734 57.674 74.6539C57.4649 74.6257 57.2893 74.4985 57.1464 74.2723C57.0042 74.0459 56.9445 73.656 56.9679 73.1053C57.0051 72.5164 57.129 72.0846 57.3397 71.8097C57.5505 71.5356 57.808 71.4063 58.1132 71.4234C58.4704 71.4404 58.7183 71.609 58.8585 71.9292C58.9983 72.249 59.0638 72.6377 59.0551 73.0937C59.0472 73.5509 59.0029 74.0688 58.9228 74.6489C58.8326 75.3623 58.702 75.8814 58.5326 76.2055C58.3635 76.5302 58.1044 76.6867 57.7563 76.6755C57.4745 76.6605 57.263 76.5339 57.1215 76.2942C56.98 76.0555 56.9345 75.6676 56.9863 75.1277ZM58.2754 72.354C58.2538 72.1651 58.1857 72.0645 58.0718 72.0546C57.977 72.0463 57.9081 72.0953 57.8651 72.2025C57.823 72.3096 57.7967 72.4425 57.7876 72.6036C57.7779 72.7643 57.7675 72.9159 57.7551 73.0592C57.7445 73.178 57.7308 73.3271 57.7124 73.5032C57.6945 73.6792 57.697 73.8195 57.7187 73.9255C57.7412 74.0314 57.7984 74.0903 57.8936 74.1036C58.0033 74.1132 58.0748 74.0754 58.1084 73.9882C58.1424 73.9026 58.1661 73.781 58.1795 73.6236C58.1941 73.5089 58.2117 73.342 58.2308 73.1219C58.2512 72.884 58.2638 72.7096 58.2688 72.5995C58.2738 72.5417 58.2767 72.4595 58.2754 72.354ZM70.3719 75.2772L71.0062 75.1418L71.0342 75.4645C71.0404 75.4882 71.0471 75.5211 71.0534 75.5633C71.0604 75.6061 71.0646 75.6469 71.0676 75.6851C71.1267 75.9791 71.2132 76.1169 71.3267 76.1024C71.4164 76.0907 71.4673 76.018 71.4799 75.8869C71.4928 75.756 71.4924 75.6095 71.4782 75.447C71.4712 75.3653 71.4649 75.2901 71.4619 75.2212C71.4586 75.1518 71.4519 75.0671 71.4431 74.9667C71.4373 74.847 71.4294 74.676 71.4202 74.4559C71.2846 74.6024 71.1339 74.6809 70.9674 74.6908C70.7567 74.6992 70.5622 74.6045 70.3818 74.4064C70.2023 74.2091 70.0768 73.8354 70.0045 73.288C69.939 72.703 69.9865 72.2552 70.1468 71.9479C70.3062 71.6411 70.5383 71.4687 70.8413 71.4322C71.1961 71.3864 71.4699 71.5098 71.6631 71.8C71.856 72.0907 71.9875 72.4621 72.0579 72.9135C72.1285 73.3649 72.1748 73.8819 72.1969 74.467C72.2308 75.1862 72.1919 75.7195 72.0809 76.0687C71.9707 76.4181 71.7424 76.6174 71.3977 76.6668C71.1176 76.7012 70.8877 76.6128 70.7065 76.4027C70.5258 76.192 70.4143 75.8175 70.3719 75.2772ZM71.1627 72.3208C71.1085 72.1381 71.0241 72.0512 70.9106 72.0617C70.815 72.0696 70.7558 72.1298 70.7324 72.2427C70.7091 72.3561 70.7061 72.4914 70.7249 72.6514C70.7428 72.8113 70.7592 72.9624 70.7716 73.1058C70.7816 73.2249 70.7942 73.3736 70.8062 73.55C70.8197 73.7269 70.8459 73.8653 70.8856 73.9649C70.9261 74.0655 70.9928 74.1137 71.0888 74.1099C71.1982 74.1008 71.2625 74.0505 71.2804 73.9596C71.2983 73.8686 71.3009 73.7444 71.2871 73.587C71.2816 73.4724 71.27 73.3046 71.2504 73.085C71.23 72.8462 71.2124 72.6726 71.1982 72.5629C71.1932 72.5052 71.181 72.4242 71.1627 72.3208ZM84.3642 69.4707L84.7253 74.6564L83.9164 74.844L83.7402 70.3022L82.7294 70.5371L82.5796 69.8852L84.3642 69.4707ZM16.1048 34.7853C15.8259 34.7104 15.6147 34.6495 15.4704 34.6014C14.9808 34.4287 14.6064 34.2238 14.346 33.9848C14.0857 33.7469 14.0056 33.4487 14.106 33.089C14.2008 32.734 14.4195 32.5178 14.7639 32.4418C15.1083 32.3662 15.5319 32.3765 16.0384 32.472C16.1868 32.5027 16.3999 32.556 16.6788 32.6317C16.9628 32.7076 17.174 32.7685 17.3131 32.8155C17.5948 32.9142 17.8524 33.0316 18.0856 33.1681C18.32 33.3054 18.4944 33.4674 18.6092 33.6556C18.7236 33.844 18.7476 34.0657 18.6797 34.3212C18.5816 34.6894 18.3588 34.9091 18.0116 34.9791C17.6648 35.0499 17.2428 35.038 16.7452 34.9445C16.602 34.9154 16.3884 34.8616 16.1048 34.7853ZM16.3119 34.0063C16.4661 34.0481 16.6468 34.0967 16.8528 34.152C17.0588 34.2078 17.2512 34.2519 17.4304 34.2842C17.6096 34.3168 17.7628 34.3264 17.8907 34.314C18.0192 34.3013 18.0956 34.2515 18.1192 34.1636C18.1384 34.0745 18.0888 33.9904 17.9712 33.912C17.8544 33.8332 17.7128 33.7643 17.5476 33.7067C17.3824 33.6485 17.1876 33.5905 16.9644 33.5323C16.7412 33.4754 16.5771 33.4316 16.4732 33.4039C16.3608 33.3736 16.1956 33.3281 15.9768 33.2672C15.7592 33.2051 15.564 33.159 15.3916 33.126C15.2196 33.0934 15.0616 33.0818 14.9184 33.0925C14.7752 33.1041 14.6924 33.1503 14.67 33.2342C14.6436 33.3174 14.6836 33.3969 14.7896 33.4754C14.896 33.5535 15.0352 33.6231 15.2059 33.6852C15.3767 33.7473 15.5656 33.8054 15.7719 33.8611C15.978 33.9165 16.1583 33.9654 16.3119 34.0063ZM20.7836 26.1038L21.9956 26.9257L21.5944 27.5239L17.7655 24.9286L18.1124 24.4107C18.3492 24.0585 18.6216 23.8253 18.93 23.7102C19.2384 23.5944 19.6588 23.7146 20.1899 24.0701C20.694 24.396 20.9708 24.7359 21.0207 25.0886C21.07 25.4407 20.9912 25.7791 20.7836 26.1038ZM20.3383 25.8022C20.4304 25.6653 20.4492 25.5085 20.394 25.3302C20.3392 25.1514 20.1412 24.95 19.7992 24.7227C19.446 24.4884 19.1839 24.3872 19.0132 24.4171C18.842 24.447 18.7228 24.529 18.6548 24.6607L20.3383 25.8022ZM25.2092 16.4669L25.596 16.9297L24.8719 17.5407L27.4544 20.6333L26.9044 21.0973L23.9356 17.541L25.2092 16.4669ZM31.8204 14.4601C31.6761 14.209 31.5695 14.0154 31.5016 13.8798C31.2764 13.4098 31.1561 12.9978 31.1396 12.6443C31.1228 12.2906 31.2768 12.023 31.5996 11.8399C31.9177 11.6561 32.224 11.6593 32.5208 11.8499C32.8172 12.0414 33.11 12.3498 33.4004 12.7777C33.4839 12.9046 33.5976 13.0937 33.7416 13.3452C33.8888 13.6008 33.9952 13.7942 34.0604 13.9263C34.1901 14.1958 34.2896 14.4617 34.3588 14.7252C34.4281 14.9882 34.4372 15.2271 34.386 15.4415C34.3344 15.6565 34.1953 15.8301 33.9676 15.9618C33.6396 16.1529 33.3276 16.1497 33.0324 15.9527C32.7375 15.7559 32.4468 15.4475 32.1616 15.0284C32.0808 14.9054 31.9672 14.716 31.8204 14.4601ZM32.5148 14.0569C32.5948 14.1954 32.688 14.3586 32.7948 14.544C32.9012 14.7295 33.006 14.8979 33.1104 15.0479C33.2144 15.1985 33.3156 15.3146 33.4147 15.3967C33.5148 15.479 33.6035 15.4977 33.682 15.4524C33.7588 15.4029 33.7824 15.3083 33.7552 15.1693C33.7276 15.0305 33.6753 14.8816 33.5996 14.7223C33.5233 14.5639 33.4269 14.3845 33.3096 14.185C33.1924 13.986 33.1064 13.8384 33.0528 13.7448C32.9944 13.6437 32.9096 13.4941 32.7984 13.2959C32.6871 13.0973 32.582 12.9258 32.4833 12.7801C32.3852 12.6349 32.2816 12.5142 32.1725 12.4203C32.0632 12.326 31.9716 12.3005 31.8968 12.3443C31.8196 12.3837 31.7916 12.4685 31.812 12.599C31.832 12.7303 31.8816 12.8784 31.9588 13.0436C32.036 13.2091 32.1284 13.3843 32.2352 13.5701C32.342 13.7556 32.4352 13.9184 32.5148 14.0569ZM40.5628 12.6295L38.908 8.29574L39.578 8.03652C39.9364 7.89884 40.2416 7.85786 40.494 7.91322C40.7468 7.96889 40.9508 8.17829 41.1073 8.54007C41.2108 8.77456 41.2492 9.0046 41.2221 9.23061C41.1952 9.45708 41.0988 9.64179 40.9311 9.78501C41.4181 9.70425 41.7848 9.98055 42.0312 10.6145C42.2517 11.1562 42.2605 11.5506 42.0572 11.799C41.8537 12.047 41.5796 12.2372 41.2331 12.3708L40.5628 12.6295ZM41.0171 11.8066C41.1496 11.7652 41.2532 11.6728 41.3279 11.5299C41.4025 11.3874 41.388 11.1737 41.2839 10.8887C41.1768 10.5723 41.0429 10.3729 40.8825 10.2917C40.7221 10.2097 40.5744 10.2113 40.4399 10.2949L41.0171 11.8066ZM40.2387 9.76722C40.4288 9.72132 40.5388 9.59957 40.5708 9.40213C40.584 9.31779 40.5544 9.17881 40.48 8.98468C40.4008 8.80157 40.3328 8.68132 40.2736 8.62492C40.1188 8.4995 39.9568 8.48512 39.7869 8.58348L40.2387 9.76722ZM48.2156 5.27167L48.5513 6.86127C48.8996 6.77765 49.2316 6.82106 49.5476 6.99062C49.8632 7.15981 50.0805 7.49562 50.2004 7.99792C50.4276 9.01298 50.0716 9.62063 49.1312 9.82165L48.4728 9.96223L47.5125 5.4213L48.2156 5.27167ZM49.048 9.20748C49.4276 9.14906 49.5496 8.79877 49.414 8.15915C49.3052 7.60153 49.0544 7.34562 48.6632 7.38939L49.048 9.20748ZM49.936 4.90342L50.638 4.75374L51.5988 9.29466L50.8964 9.44481L49.936 4.90342ZM57.7975 2.39837L58.3013 2.46128C58.3304 2.63281 58.372 2.7633 58.4255 2.85369C58.4796 2.94279 58.5688 2.98584 58.694 2.98108C58.8912 2.96716 58.9949 2.77732 59.004 2.41187L59.5008 2.27895C59.5296 2.5599 59.48 2.81592 59.3536 3.04829C59.2272 3.28195 59.018 3.40857 58.7252 3.42885C58.432 3.44954 58.2076 3.35325 58.05 3.14029C57.8924 2.92696 57.8085 2.68056 57.7975 2.39837ZM57.7253 3.69433L58.442 3.64378L58.6004 5.92718L59.134 4.55324L59.068 3.60042L59.784 3.54987L60.106 8.18062L59.39 8.23117L59.2261 5.88289L58.6968 7.30221L58.7636 8.27458L58.0477 8.32513L57.7253 3.69433ZM69.8976 3.48975L70.6141 3.53988L70.4789 5.48608C70.7552 5.55335 70.9064 5.39461 70.9333 5.00929L70.9808 4.32832C71.0193 3.77474 71.2596 3.518 71.7017 3.55737C71.8092 3.56534 71.9164 3.58562 72.0221 3.6191L71.926 4.06211C71.836 4.05218 71.7784 4.07603 71.7528 4.13491C71.7268 4.19415 71.7108 4.2714 71.704 4.36656L71.6552 5.07298C71.626 5.49214 71.43 5.73129 71.0672 5.78784C71.25 5.82685 71.3957 5.91792 71.5021 6.05922C71.6088 6.20172 71.6557 6.37252 71.6412 6.5711L71.5824 7.42126C71.5768 7.49882 71.5736 7.57964 71.572 7.66124C71.5708 7.74366 71.5849 7.80575 71.614 7.84668C71.6437 7.88812 71.6981 7.90447 71.7764 7.89733L71.7821 8.2826C71.5344 8.35623 71.3052 8.33916 71.0948 8.23045C70.8844 8.1221 70.792 7.87974 70.8181 7.504L70.8868 6.51822C70.8981 6.35865 70.8761 6.23716 70.8212 6.15526C70.7661 6.07273 70.6388 6.03377 70.4401 6.03661L70.2917 8.17068L69.5761 8.1205L69.8976 3.48975ZM78.0808 6.87286C78.1308 6.58709 78.1732 6.37009 78.2081 6.22252C78.3364 5.71618 78.5076 5.32331 78.7208 5.04163C78.9341 4.76015 79.2228 4.65517 79.588 4.72399C79.9485 4.78758 80.182 4.98823 80.2869 5.32615C80.3916 5.66439 80.4188 6.08949 80.3677 6.60494C80.3505 6.75577 80.316 6.97427 80.2664 7.26004C80.2153 7.55062 80.1728 7.76752 80.1384 7.91126C80.0653 8.20178 79.9716 8.46959 79.856 8.71599C79.7409 8.96243 79.5952 9.15103 79.4185 9.28235C79.242 9.41331 79.024 9.45672 78.7657 9.41098C78.3924 9.34485 78.1548 9.14073 78.0552 8.79913C77.9549 8.45852 77.93 8.03455 77.9788 7.52873C77.996 7.38189 78.03 7.16338 78.0808 6.87286ZM78.8712 7.01292C78.8436 7.17016 78.8108 7.35524 78.774 7.5666C78.7368 7.77781 78.7097 7.97443 78.6936 8.1564C78.6768 8.33864 78.6804 8.49345 78.704 8.62083C78.7276 8.74786 78.7837 8.81942 78.8733 8.83577C78.9632 8.84731 79.0421 8.79003 79.1097 8.66621C79.1773 8.54203 79.2329 8.394 79.276 8.2233C79.3189 8.05328 79.3604 7.8531 79.3976 7.62461C79.4348 7.39581 79.4636 7.22785 79.482 7.12121C79.5024 7.00614 79.5333 6.83659 79.5752 6.61327C79.6164 6.38887 79.6456 6.18946 79.6633 6.01436C79.6812 5.83999 79.6785 5.68037 79.6549 5.53788C79.6317 5.39502 79.578 5.3158 79.4929 5.30069C79.4085 5.28202 79.3332 5.32936 79.2644 5.44231C79.1964 5.55531 79.1396 5.70029 79.0933 5.87735C79.046 6.05369 79.0053 6.24798 78.968 6.45882C78.9312 6.67019 78.8988 6.8549 78.8712 7.01292ZM87.9388 9.46779L89.0505 7.45986L89.9556 7.77352L88.452 12.1623L87.8161 11.9422L88.8184 9.01567L88.788 9.00532L87.37 11.7878L86.9721 11.6506L87.5524 8.57743L87.522 8.56749L86.5192 11.4933L85.8892 11.2755L87.3929 6.886L88.298 7.19955L87.9388 9.46779ZM94.3653 14.9193L96.6744 10.8991L98.4556 11.9331L96.1469 15.9538L95.5249 15.5921L97.5329 12.0956L96.9952 11.7835L94.9872 15.2803L94.3653 14.9193ZM106.07 17.5491L103.101 21.1048L102.546 20.6368L105.091 17.5889L104.823 17.3632L103.047 19.3189C102.75 19.641 102.435 19.8388 102.1 19.9125C101.765 19.9865 101.498 19.8938 101.298 19.6346L101.51 19.2282C101.728 19.2764 101.919 19.2581 102.082 19.1709C102.244 19.0837 102.425 18.9278 102.626 18.7008L104.702 16.3952L106.07 17.5491ZM112.248 24.8955L111.749 25.2338L111.181 24.3872L110.093 25.1256L110.52 25.7615L110.01 26.107L109.584 25.471L108.345 26.3108L108.982 27.2597L108.488 27.5943L107.45 26.0469L111.279 23.4511L112.248 24.8955ZM115.575 32.0525L115.761 32.7498L113.886 33.2541C113.913 33.5391 114.111 33.6318 114.483 33.5316L115.139 33.3548C115.672 33.2112 115.992 33.3564 116.098 33.7894C116.126 33.8941 116.141 34.0024 116.145 34.1142L115.696 34.1671C115.677 34.078 115.636 34.0307 115.571 34.0255C115.508 34.0198 115.43 34.0302 115.339 34.0549L114.658 34.238C114.254 34.347 113.966 34.2392 113.794 33.912C113.816 34.0987 113.778 34.2663 113.68 34.4143C113.581 34.562 113.436 34.6618 113.244 34.7132L112.426 34.9337C112.35 34.9536 112.274 34.9771 112.196 35.0022C112.118 35.0273 112.064 35.0614 112.035 35.1025C112.006 35.1443 112.008 35.2008 112.04 35.2728L111.68 35.4034C111.53 35.1924 111.472 34.9691 111.505 34.7335C111.538 34.4987 111.736 34.3319 112.099 34.2344L113.048 33.978C113.202 33.9371 113.309 33.877 113.368 33.7982C113.428 33.719 113.423 33.586 113.355 33.3978L111.3 33.951L111.114 33.2541L115.575 32.0525ZM113.764 42.9751L113.623 43.5813C113.212 43.5643 112.821 43.4647 112.448 43.2836C112.074 43.1032 111.904 42.8267 111.938 42.4554C111.964 42.2102 112.058 42.0239 112.218 41.8994C112.378 41.7756 112.591 41.6907 112.853 41.6462C113.115 41.602 113.386 41.588 113.667 41.6048C113.947 41.6215 114.237 41.6494 114.536 41.69C115.225 41.7799 115.759 41.9069 116.142 42.0688C116.524 42.2309 116.693 42.5154 116.651 42.9205C116.629 43.1705 116.522 43.3587 116.329 43.4849C116.136 43.6107 115.908 43.6824 115.646 43.7003C115.384 43.7182 115.145 43.7055 114.928 43.6601L114.904 43.0169C115.072 43.0348 115.197 43.0456 115.278 43.0504C115.451 43.0511 115.584 43.0495 115.675 43.046C115.789 43.0492 115.868 43.0363 115.914 43.0061C115.952 42.9667 115.974 42.9314 115.977 42.9015C115.985 42.8628 115.972 42.8223 115.937 42.7798C115.899 42.7367 115.822 42.7001 115.708 42.6707C115.615 42.6515 115.54 42.6368 115.482 42.6241C115.425 42.6109 115.362 42.5971 115.295 42.5807C115.044 42.5325 114.725 42.4924 114.338 42.4606C113.917 42.4163 113.604 42.3921 113.396 42.3872C113.344 42.3856 113.286 42.3849 113.224 42.3853C113.162 42.3849 113.108 42.3828 113.066 42.3781C112.888 42.3682 112.768 42.3833 112.703 42.4251C112.642 42.4665 112.61 42.5067 112.606 42.5453C112.598 42.5878 112.618 42.6357 112.669 42.6894C112.696 42.718 112.726 42.7403 112.76 42.7547C112.793 42.7686 112.835 42.7814 112.886 42.7905C112.937 42.8004 112.981 42.8095 113.02 42.8179C113.11 42.8319 113.234 42.8605 113.394 42.9031C113.569 42.9393 113.692 42.9632 113.764 42.9751Z" fill="white"/>
</svg>
